<?xml version="1.0" encoding="utf-8"?>
<!-- Generator: Adobe Illustrator 17.0.2, SVG Export Plug-In . SVG Version: 6.00 Build 0)  -->
<!DOCTYPE svg PUBLIC "-//W3C//DTD SVG 1.1//EN" "http://www.w3.org/Graphics/SVG/1.1/DTD/svg11.dtd">
<svg version="1.1" id="Layer_1" xmlns="http://www.w3.org/2000/svg" xmlns:xlink="http://www.w3.org/1999/xlink" x="0px" y="0px"
	 width="235px" height="30px" viewBox="0 0 235 30" enable-background="new 0 0 235 30" xml:space="preserve">
<g>
	<g>
		<path fill="#FFFFFF" d="M48.349,5.244h-5.811c-1.388,0-2.626,1.462-2.626,2.894v16.62h3.806v-6.819h3.362v6.819h3.836V8.138
			C50.915,6.674,49.764,5.244,48.349,5.244z M47.198,14.163h-3.48v-5.42h3.48V14.163z M59.618,24.758h3.745V5.244h-3.745V24.758z
			 M5.784,16.671h1.681v4.404l-0.058-0.002H3.747V8.896h7.286V5.244H2.508C1.092,5.244,0,6.31,0,7.771v14.399
			c0,1.463,1.181,2.588,2.599,2.588h5.958c1.417,0,2.596-1.125,2.596-2.588v-9.213H5.784V16.671z M28.969,15.198
			c1.033-0.06,1.771-0.942,1.771-2.376V8.014c0-1.459-1.18-2.77-2.597-2.77h-8.348v19.514h3.804V16.72h3.482v8.038h3.747v-6.364
			C30.827,16.751,30.326,15.289,28.969,15.198z M26.992,13.13H23.51V8.777h3.482V13.13z M233.143,15.198
			c1.033-0.06,1.769-0.942,1.769-2.376V8.014c0-1.459-1.18-2.77-2.597-2.77h-8.348v19.514h3.805V16.72h3.481v8.038H235v-6.364
			C235,16.751,234.498,15.289,233.143,15.198z M231.166,13.13h-3.48V8.777h3.48V13.13z M184.941,9.018h4.159v15.74h3.776V9.018
			h4.161V5.244h-12.096V9.018z M80.591,15.716H80.53L75.605,5.244h-3.571v19.514h3.451V13.86h0.03l5.075,10.898h3.423V5.244h-3.423
			V15.716z M212.317,5.244h-5.812c-1.388,0-2.625,1.462-2.625,2.894v16.62h3.804v-6.819h3.363v6.819h3.837V8.138
			C214.885,6.674,213.732,5.244,212.317,5.244z M211.165,14.163h-3.481v-5.42h3.481V14.163z M176.3,15.198
			c1.031-0.06,1.768-0.942,1.768-2.376V8.014c0-1.459-1.179-2.77-2.594-2.77h-8.349v19.514h3.805V16.72h3.481v8.038h3.745v-6.364
			C178.156,16.751,177.656,15.289,176.3,15.198z M174.321,13.13h-3.482V8.777h3.482V13.13z M131.374,16.172h-0.056l-2.776-10.928
			h-5.606v19.514h3.571V10.359h0.207l3.097,12.935h2.805l3.274-12.42h0.236v13.883h3.923V5.244h-5.751L131.374,16.172z
			 M156.684,5.244h-5.723c-1.414,0-2.596,1.126-2.596,2.589v14.399c0,1.459,1.002,2.526,2.418,2.526h6.078
			c1.418,0,2.421-1.066,2.421-2.526V7.833C159.281,6.37,158.1,5.244,156.684,5.244z M155.533,20.708h-3.423V8.928h3.423V20.708z"/>
	</g>
</g>
<g>
	<g>
		<path fill="#DDA552" d="M114.974,11.309c-0.083-0.108-0.189-0.191-0.491-0.095c-1.677,5.196-13.342,5.129-15.145,9.485
			c-0.034,0.085-0.059,0.173-0.089,0.261c-0.045,0.135-0.078,0.272-0.104,0.399c-0.004,0.023-0.009,0.05-0.013,0.071
			c-0.372,2.483,3.343,2.764,2.844,1.317c-0.172-0.489-0.087-0.944,0.09-1.343c0.19-0.582,0.614-1.054,1.165-1.391
			c0.039-0.026,0.069-0.048,0.069-0.048l0.015,0.002c1.658-0.956,4.298-0.734,4.807,1.349c0.937,3.827-3.988,6.774-8.525,5.131
			c-1.379-0.499-2.353-1.403-2.96-2.498c-0.002-0.005-0.005-0.009-0.007-0.014c-0.163-0.297-0.297-0.608-0.405-0.929
			c-0.002-0.01-0.008-0.02-0.011-0.029c-0.015-0.044-0.031-0.09-0.042-0.133c-0.887-2.617,0.01-4.66,0.951-5.936l0.002-0.013
			c0.345-0.494,0.763-0.938,1.245-1.321c0.13-0.106,0.213-0.165,0.213-0.165c3.06,0.995,8.06,0.555,8.261-1.776
			c0,0,0.001-0.022,0.004-0.058c0.008-0.205-0.012-0.423-0.079-0.652c-0.029-0.104-0.069-0.198-0.114-0.29
			c-0.38-0.901-1.52-1.981-4.859-1.295c-0.819,0.138-1.723,0.443-2.705,0.979c-0.162-0.621-0.216-1.249-0.185-1.872H98.9
			c0.003-0.019,0.006-0.037,0.009-0.055c0.03-0.55,0.126-1.095,0.275-1.621c0.909-3.667,3.462-5.136,5.185-5.716
			c0.577-0.22,1.128-0.341,1.631-0.37c0.031-0.003,0.05-0.005,0.05-0.005v0.005c1.477-0.073,2.55,0.645,2.697,2.054
			c0.181,1.72-1.442,2.757-2.586,3.271v0.001c0,0-0.989,0.472-0.016,0.71c0.745,0.138,1.795,0.1,2.875-0.723
			c1.174-0.895,2.121-2.28,2.15-3.563h0.009c0,0,0-0.024-0.001-0.062c0-0.23-0.014-0.648-0.164-1.121
			c-0.066-0.254-0.159-0.528-0.296-0.799c0,0-0.037-0.081-0.117-0.21c-0.177-0.309-0.405-0.61-0.708-0.876
			C109.221,0.71,108.107,0,106.43,0.005h0.002c0,0-7.381-0.456-10.349,7.301c-0.093,0.231-0.174,0.459-0.242,0.685
			c-0.005,0.014-0.009,0.025-0.015,0.037l0.003,0.002c-0.144,0.478-0.229,0.946-0.272,1.386c0,0-0.436,2.606,1.238,4.526
			c-0.319,0.278-0.648,0.583-0.98,0.917c-0.436,0.401-0.945,0.931-1.438,1.58c-0.003,0.003-0.005,0.006-0.01,0.007h0.003
			c-1.232,1.63-2.312,3.989-1.653,6.862l-0.008-0.003c0,0,0.179,1.054,0.874,2.325c0.135,0.267,0.284,0.532,0.468,0.787
			c0.001,0.005,0.004,0.009,0.008,0.016V26.43c0.113,0.159,0.236,0.316,0.368,0.47c1.437,1.789,4.024,3.482,8.598,3.023
			c0.804-0.044,1.528-0.168,2.178-0.349c0.006,0,0.013-0.003,0.013-0.003l0.002-0.003c4.087-1.155,5.285-4.576,5.285-4.576
			c0.659-1.546,0.629-2.866,0.629-2.866l-0.002,0.003c0.229-3.346-2.211-4.387-2.211-4.387c0.049-0.032,0.097-0.06,0.145-0.091
			c2.047-1.303,4.707-2.102,5.676-4.278c0.035-0.081,0.069-0.166,0.105-0.258c0.109-0.3,0.2-0.615,0.242-0.97h0.003
			C115.119,11.85,115.097,11.555,114.974,11.309z M102.101,12.922l0.003-0.002c0,0,0.297-0.106,0.692-0.176
			c0.011-0.005,0.023-0.007,0.033-0.009c0.26-0.049,0.477-0.061,0.665-0.051c0.163,0.002,0.323,0.025,0.472,0.064
			c0.152,0.052,1.157,0.431,0.351,1.358c-0.401,0.371-1.286,0.66-3.223,0.291c-0.088-0.022-0.172-0.05-0.256-0.078
			c-0.016-0.007-0.033-0.011-0.046-0.016c-0.011-0.005-0.02-0.007-0.029-0.008c-0.423-0.122-0.708-0.23-0.708-0.23
			S100.756,13.346,102.101,12.922z"/>
	</g>
</g>
</svg>
